# xmcd
#
# Track frame offsets:
#	150
#	15626
#	31921
#	50696
#	70772
#	88156
#	107149
#	123801
#	144931
#	164200
#	183305
#
# Disc length: 2694 seconds
#
# Revision: 1
# Processed by: cddbd v1.5.2PL0 Copyright (c) Steve Scherf et al.
# Submitted via: audiograbber 1.83.01
#
DISCID=930a840b
DTITLE=Whitney Houston - I look to you
DYEAR=1900
DGENRE=
TTITLE0=Million Dollar Bill
TTITLE1=Nothin' But Love
TTITLE2=Call You Tonight
TTITLE3=I Look To You
TTITLE4=Like I Never Left
TTITLE5=A Song For You
TTITLE6=I Didn't Know My Own Strength
TTITLE7=Worth It
TTITLE8=For The Lovers
TTITLE9=I Got You
TTITLE10=Salute
EXTD=
EXTT0=
EXTT1=
EXTT2=
EXTT3=
EXTT4=
EXTT5=
EXTT6=
EXTT7=
EXTT8=
EXTT9=
EXTT10=
PLAYORDER=
